# xmcd
#
# Track frame offsets:
#	150
#	20305
#	37450
#	65362
#	85792
#	97137
#	115595
#	133450
#	147795
#	172140
#	196605
#	211290
#	223672
#	240352
#	257212
#	273267
#	289370
#	306965
#	327187
#
# Disc length: 4588 seconds
#
# Revision: 4
# Processed by: cddbd v1.5.2PL0 Copyright (c) Steve Scherf et al.
# Submitted via: EasyCDDAExtractor 16.0.8.2
#
DISCID=2511ea13
DTITLE=Νταλάρας Γιώργος - Τα χρώματα του χρόνου 2-2
DYEAR=2015
DGENRE=Έντεχνη λαϊκή
TTITLE0=Νταλάρας Γιώργος - Ανεμολόγιο [Θ. Μικρούτσικος-Κ. Τριπολίτης]
TTITLE1=Νταλάρας Γιώργος-Πυξ Λαξ - Ένας κόμπος η χαρά μου[Σ. Κουγιουμτζής, δια
TTITLE1=σκ. Γ.Νταλάρας]
TTITLE2=Νταλάρας Γιώργος-Μαχαιρίτσας Λαυρέντης - Διδυμότειχο blues [Λ.Μαχαιρίτ
TTITLE2=σας-Γ. Μπαχ Σπυρόπουλος]
TTITLE3=Νταλάρας Γιώργος-Θηβαίος Χρ.-Συνήθεις Ύποπτοι - Μικρή πατρίδα [Γ.Ανδρέ
TTITLE3=ου-Π.Καρασούλος]
TTITLE4=Νταλάρας Γιώργος - Καραντί [Θ. Μικρούτσικος-Ν. Καββαδίας]
TTITLE5=Νταλάρας Γιώργος-Φραγκούλης Μάριος - Νότος [Λ. Μαχαιρίτσας-Ισαάκ Σούση
TTITLE5=ς]
TTITLE6=Νταλάρας Γιώργος - Agrigento [Γιώργος Ζήκας]
TTITLE7=Νταλάρας Γ.-Τσαλιγοπούλου Ελ.-Ζέρβας Χ. - Luna rosa [Ant. Viscione-V. 
TTITLE7=DeCrescenzo, απ.Χ.Παγώνης]
TTITLE8=Νταλάρας Γιώργος - Una moneda le di [Ochaita-Valerio-Solano, απ.Χ.Παγώ
TTITLE8=νης]
TTITLE9=Νταλάρας Γιώργος - Βαμμένα κόκκινα μαλλιά [Βασ. Δημητρίου]
TTITLE10=Νταλάρας Γιώργος - Το πεπρωμένο [Βασ. Δημητρίου]
TTITLE11=Νταλάρας Γιώργος - Καράβια στη στεριά [Μίνως Μάτσας-Μιχ. Γκανάς]
TTITLE12=Νταλάρας Γιώργος - Με βάρκα την Ελλάδα [Χ. Νικολόπουλος-Αντ. Ανδρικάκ
TTITLE12=ης]
TTITLE13=Νταλάρας Γιώργος - Νύχτα [Goran Bregovic-Αντ. Ανδρικάκης]
TTITLE14=Νταλάρας Γιώργος - Σου άξιζε καλύτερη αγκαλιά [Goran Bregovic-Χ. κ Π.
TTITLE14=Κατσιμίχας]
TTITLE15=Νταλάρας Γιώργος-Πυξ Λαξ - Μια βραδιά στο Λεβερκούζεν [Μάνος Ξυδούς/Γ
TTITLE15=Νταλάρας-Μ.Ξυδούς]
TTITLE16=Νταλάρας Γιώργος - Καλή τύχη [Απ. Καλδάρας]
TTITLE17=Νταλάρας Γιώργος - Στό 'πα και στο ξαναλέω [παραδοσιακό]
TTITLE18=Νταλάρας Γιώργος - Άσπρο περιστέρι [Μ. Χατζιδάκις-Ν. Γκάτσος]
EXTD=
EXTT0=
EXTT1=
EXTT2=
EXTT3=
EXTT4=
EXTT5=
EXTT6=
EXTT7=
EXTT8=
EXTT9=
EXTT10=
EXTT11=
EXTT12=
EXTT13=
EXTT14=
EXTT15=
EXTT16=
EXTT17=
EXTT18=
PLAYORDER=
